G04 EAGLE Gerber RS-274X export*
G75*
%MOMM*%
%FSLAX34Y34*%
%LPD*%
%IN*%
%IPPOS*%
%AMOC8*
5,1,8,0,0,1.08239X$1,22.5*%
G01*
%ADD10C,0.254000*%


D10*
X430000Y310000D02*
X510000Y240000D01*
X1090000Y240000D01*
X1170000Y310000D01*
X1170000Y440000D01*
X1080000Y440000D01*
X1080000Y760000D01*
X1170000Y760000D01*
X1170000Y860000D01*
X1168592Y892248D01*
X1164379Y924250D01*
X1157393Y955763D01*
X1147686Y986547D01*
X1135334Y1016369D01*
X1120429Y1045000D01*
X1103086Y1072223D01*
X1083436Y1097831D01*
X1061630Y1121630D01*
X1037831Y1143436D01*
X1012223Y1163086D01*
X985000Y1180429D01*
X956369Y1195334D01*
X926547Y1207686D01*
X895763Y1217393D01*
X864250Y1224379D01*
X832248Y1228592D01*
X800000Y1230000D01*
X767752Y1228592D01*
X735750Y1224379D01*
X704237Y1217393D01*
X673453Y1207686D01*
X643631Y1195334D01*
X615000Y1180429D01*
X587777Y1163086D01*
X562169Y1143436D01*
X538371Y1121630D01*
X516564Y1097831D01*
X496914Y1072223D01*
X479571Y1045000D01*
X464666Y1016369D01*
X452314Y986547D01*
X442607Y955763D01*
X435621Y924250D01*
X431408Y892248D01*
X430000Y860000D01*
X430000Y760000D01*
X520000Y760000D01*
X520000Y440000D01*
X430000Y440000D01*
X430000Y310000D01*
X959930Y689551D02*
X959860Y688656D01*
X959719Y687768D01*
X959509Y686895D01*
X959232Y686041D01*
X958888Y685211D01*
X958480Y684411D01*
X958011Y683645D01*
X957483Y682918D01*
X956900Y682235D01*
X956265Y681600D01*
X955582Y681017D01*
X954855Y680489D01*
X954089Y680020D01*
X953289Y679612D01*
X952459Y679268D01*
X951605Y678991D01*
X950732Y678781D01*
X949845Y678640D01*
X948949Y678570D01*
X948051Y678570D01*
X947156Y678640D01*
X946268Y678781D01*
X945395Y678991D01*
X944541Y679268D01*
X943711Y679612D01*
X942911Y680020D01*
X942145Y680489D01*
X941418Y681017D01*
X940735Y681600D01*
X940100Y682235D01*
X939517Y682918D01*
X938989Y683645D01*
X938520Y684411D01*
X938112Y685211D01*
X937768Y686041D01*
X937491Y686895D01*
X937281Y687768D01*
X937140Y688656D01*
X937070Y689551D01*
X937070Y690449D01*
X937140Y691345D01*
X937281Y692232D01*
X937491Y693105D01*
X937768Y693959D01*
X938112Y694789D01*
X938520Y695589D01*
X938989Y696355D01*
X939517Y697082D01*
X940100Y697765D01*
X940735Y698400D01*
X941418Y698983D01*
X942145Y699511D01*
X942911Y699980D01*
X943711Y700388D01*
X944541Y700732D01*
X945395Y701009D01*
X946268Y701219D01*
X947156Y701360D01*
X948051Y701430D01*
X948949Y701430D01*
X949845Y701360D01*
X950732Y701219D01*
X951605Y701009D01*
X952459Y700732D01*
X953289Y700388D01*
X954089Y699980D01*
X954855Y699511D01*
X955582Y698983D01*
X956265Y698400D01*
X956900Y697765D01*
X957483Y697082D01*
X958011Y696355D01*
X958480Y695589D01*
X958888Y694789D01*
X959232Y693959D01*
X959509Y693105D01*
X959719Y692232D01*
X959860Y691345D01*
X959930Y690449D01*
X959930Y689551D01*
X959930Y509551D02*
X959860Y508656D01*
X959719Y507768D01*
X959509Y506895D01*
X959232Y506041D01*
X958888Y505211D01*
X958480Y504411D01*
X958011Y503645D01*
X957483Y502918D01*
X956900Y502235D01*
X956265Y501600D01*
X955582Y501017D01*
X954855Y500489D01*
X954089Y500020D01*
X953289Y499612D01*
X952459Y499268D01*
X951605Y498991D01*
X950732Y498781D01*
X949845Y498640D01*
X948949Y498570D01*
X948051Y498570D01*
X947156Y498640D01*
X946268Y498781D01*
X945395Y498991D01*
X944541Y499268D01*
X943711Y499612D01*
X942911Y500020D01*
X942145Y500489D01*
X941418Y501017D01*
X940735Y501600D01*
X940100Y502235D01*
X939517Y502918D01*
X938989Y503645D01*
X938520Y504411D01*
X938112Y505211D01*
X937768Y506041D01*
X937491Y506895D01*
X937281Y507768D01*
X937140Y508656D01*
X937070Y509551D01*
X937070Y510449D01*
X937140Y511345D01*
X937281Y512232D01*
X937491Y513105D01*
X937768Y513959D01*
X938112Y514789D01*
X938520Y515589D01*
X938989Y516355D01*
X939517Y517082D01*
X940100Y517765D01*
X940735Y518400D01*
X941418Y518983D01*
X942145Y519511D01*
X942911Y519980D01*
X943711Y520388D01*
X944541Y520732D01*
X945395Y521009D01*
X946268Y521219D01*
X947156Y521360D01*
X948051Y521430D01*
X948949Y521430D01*
X949845Y521360D01*
X950732Y521219D01*
X951605Y521009D01*
X952459Y520732D01*
X953289Y520388D01*
X954089Y519980D01*
X954855Y519511D01*
X955582Y518983D01*
X956265Y518400D01*
X956900Y517765D01*
X957483Y517082D01*
X958011Y516355D01*
X958480Y515589D01*
X958888Y514789D01*
X959232Y513959D01*
X959509Y513105D01*
X959719Y512232D01*
X959860Y511345D01*
X959930Y510449D01*
X959930Y509551D01*
X662930Y509551D02*
X662860Y508656D01*
X662719Y507768D01*
X662509Y506895D01*
X662232Y506041D01*
X661888Y505211D01*
X661480Y504411D01*
X661011Y503645D01*
X660483Y502918D01*
X659900Y502235D01*
X659265Y501600D01*
X658582Y501017D01*
X657855Y500489D01*
X657089Y500020D01*
X656289Y499612D01*
X655459Y499268D01*
X654605Y498991D01*
X653732Y498781D01*
X652845Y498640D01*
X651949Y498570D01*
X651051Y498570D01*
X650156Y498640D01*
X649268Y498781D01*
X648395Y498991D01*
X647541Y499268D01*
X646711Y499612D01*
X645911Y500020D01*
X645145Y500489D01*
X644418Y501017D01*
X643735Y501600D01*
X643100Y502235D01*
X642517Y502918D01*
X641989Y503645D01*
X641520Y504411D01*
X641112Y505211D01*
X640768Y506041D01*
X640491Y506895D01*
X640281Y507768D01*
X640140Y508656D01*
X640070Y509551D01*
X640070Y510449D01*
X640140Y511345D01*
X640281Y512232D01*
X640491Y513105D01*
X640768Y513959D01*
X641112Y514789D01*
X641520Y515589D01*
X641989Y516355D01*
X642517Y517082D01*
X643100Y517765D01*
X643735Y518400D01*
X644418Y518983D01*
X645145Y519511D01*
X645911Y519980D01*
X646711Y520388D01*
X647541Y520732D01*
X648395Y521009D01*
X649268Y521219D01*
X650156Y521360D01*
X651051Y521430D01*
X651949Y521430D01*
X652845Y521360D01*
X653732Y521219D01*
X654605Y521009D01*
X655459Y520732D01*
X656289Y520388D01*
X657089Y519980D01*
X657855Y519511D01*
X658582Y518983D01*
X659265Y518400D01*
X659900Y517765D01*
X660483Y517082D01*
X661011Y516355D01*
X661480Y515589D01*
X661888Y514789D01*
X662232Y513959D01*
X662509Y513105D01*
X662719Y512232D01*
X662860Y511345D01*
X662930Y510449D01*
X662930Y509551D01*
X662930Y689551D02*
X662860Y688656D01*
X662719Y687768D01*
X662509Y686895D01*
X662232Y686041D01*
X661888Y685211D01*
X661480Y684411D01*
X661011Y683645D01*
X660483Y682918D01*
X659900Y682235D01*
X659265Y681600D01*
X658582Y681017D01*
X657855Y680489D01*
X657089Y680020D01*
X656289Y679612D01*
X655459Y679268D01*
X654605Y678991D01*
X653732Y678781D01*
X652845Y678640D01*
X651949Y678570D01*
X651051Y678570D01*
X650156Y678640D01*
X649268Y678781D01*
X648395Y678991D01*
X647541Y679268D01*
X646711Y679612D01*
X645911Y680020D01*
X645145Y680489D01*
X644418Y681017D01*
X643735Y681600D01*
X643100Y682235D01*
X642517Y682918D01*
X641989Y683645D01*
X641520Y684411D01*
X641112Y685211D01*
X640768Y686041D01*
X640491Y686895D01*
X640281Y687768D01*
X640140Y688656D01*
X640070Y689551D01*
X640070Y690449D01*
X640140Y691345D01*
X640281Y692232D01*
X640491Y693105D01*
X640768Y693959D01*
X641112Y694789D01*
X641520Y695589D01*
X641989Y696355D01*
X642517Y697082D01*
X643100Y697765D01*
X643735Y698400D01*
X644418Y698983D01*
X645145Y699511D01*
X645911Y699980D01*
X646711Y700388D01*
X647541Y700732D01*
X648395Y701009D01*
X649268Y701219D01*
X650156Y701360D01*
X651051Y701430D01*
X651949Y701430D01*
X652845Y701360D01*
X653732Y701219D01*
X654605Y701009D01*
X655459Y700732D01*
X656289Y700388D01*
X657089Y699980D01*
X657855Y699511D01*
X658582Y698983D01*
X659265Y698400D01*
X659900Y697765D01*
X660483Y697082D01*
X661011Y696355D01*
X661480Y695589D01*
X661888Y694789D01*
X662232Y693959D01*
X662509Y693105D01*
X662719Y692232D01*
X662860Y691345D01*
X662930Y690449D01*
X662930Y689551D01*
M02*
