G04 EAGLE Gerber RS-274X export*
G75*
%MOMM*%
%FSLAX34Y34*%
%LPD*%
%INSoldermask Top*%
%IPPOS*%
%AMOC8*
5,1,8,0,0,1.08239X$1,22.5*%
G01*
%ADD10R,8.051800X0.025400*%
%ADD11R,30.988000X0.254000*%
%ADD12R,15.494000X0.127000*%
%ADD13R,1.203200X1.303200*%
%ADD14R,1.803200X1.603200*%
%ADD15R,1.303200X1.203200*%
%ADD16C,0.505344*%
%ADD17R,1.676400X0.558800*%
%ADD18R,3.200400X3.200400*%
%ADD19C,2.082800*%
%ADD20R,2.303200X1.603200*%
%ADD21R,1.203200X0.753200*%
%ADD22C,1.703200*%
%ADD23R,1.703200X0.753200*%
%ADD24C,1.511200*%
%ADD25C,2.489200*%
%ADD26C,2.203200*%
%ADD27R,0.762000X1.473200*%
%ADD28R,1.473200X0.762000*%
%ADD29C,1.854200*%
%ADD30C,0.959600*%


D10*
X40132Y0D03*
X40132Y254D03*
X40132Y508D03*
D11*
X153670Y0D03*
D12*
X76835Y0D03*
X76835Y1270D03*
D13*
X830600Y311800D03*
X830600Y328800D03*
X882500Y311800D03*
X882500Y328800D03*
X614400Y368800D03*
X614400Y351800D03*
D14*
X757100Y285200D03*
X757100Y313200D03*
X613600Y313200D03*
X613600Y285200D03*
D15*
X854800Y720300D03*
X837800Y720300D03*
X837200Y757800D03*
X854200Y757800D03*
D16*
X835280Y263490D02*
X835280Y256510D01*
X835280Y263490D02*
X842260Y263490D01*
X842260Y256510D01*
X835280Y256510D01*
X835280Y261310D02*
X842260Y261310D01*
X817740Y263490D02*
X817740Y256510D01*
X817740Y263490D02*
X824720Y263490D01*
X824720Y256510D01*
X817740Y256510D01*
X817740Y261310D02*
X824720Y261310D01*
X887780Y263490D02*
X887780Y256510D01*
X887780Y263490D02*
X894760Y263490D01*
X894760Y256510D01*
X887780Y256510D01*
X887780Y261310D02*
X894760Y261310D01*
X870240Y263490D02*
X870240Y256510D01*
X870240Y263490D02*
X877220Y263490D01*
X877220Y256510D01*
X870240Y256510D01*
X870240Y261310D02*
X877220Y261310D01*
D17*
X724390Y762060D03*
X724390Y755456D03*
X724390Y748852D03*
X724390Y742502D03*
X724390Y735898D03*
X724390Y729548D03*
X724390Y722944D03*
X724390Y716340D03*
X782810Y716340D03*
X782810Y722944D03*
X782810Y729548D03*
X782810Y735898D03*
X782810Y742502D03*
X782810Y748852D03*
X782810Y755456D03*
X782810Y762060D03*
D18*
X753600Y739200D03*
D19*
X965700Y377300D03*
X991100Y377300D03*
X965700Y351900D03*
X991100Y351900D03*
X965700Y326500D03*
X991100Y326500D03*
X492200Y320300D03*
X492200Y345700D03*
X458700Y320300D03*
X458700Y345700D03*
D15*
X821500Y280000D03*
X838500Y280000D03*
X818700Y910300D03*
X835700Y910300D03*
X730600Y1040300D03*
X747600Y1040300D03*
X852500Y1040300D03*
X869500Y1040300D03*
X794400Y1040300D03*
X811400Y1040300D03*
X866300Y910300D03*
X883300Y910300D03*
X718200Y910300D03*
X735200Y910300D03*
D13*
X662000Y418800D03*
X662000Y401800D03*
D15*
X874000Y280000D03*
X891000Y280000D03*
X727300Y800300D03*
X744300Y800300D03*
X769200Y980300D03*
X786200Y980300D03*
X871100Y980300D03*
X888100Y980300D03*
X823000Y980300D03*
X840000Y980300D03*
X714900Y980300D03*
X731900Y980300D03*
X766800Y910300D03*
X783800Y910300D03*
D20*
X1141800Y322100D03*
X1050800Y322100D03*
X1141800Y367100D03*
X1050800Y367100D03*
D21*
X701400Y359200D03*
X701400Y368700D03*
X701400Y349700D03*
X674400Y349700D03*
X674400Y368700D03*
D22*
X663100Y942700D03*
X663100Y968100D03*
X454471Y814023D03*
X479869Y814378D03*
X932200Y1024600D03*
X932200Y999200D03*
X656000Y1009200D03*
X656000Y1034600D03*
X691658Y1128618D03*
X706154Y1149475D03*
X887014Y1149115D03*
X902158Y1128723D03*
X819700Y1186900D03*
X845100Y1186900D03*
X1043500Y816900D03*
X1068900Y816900D03*
X517300Y826900D03*
X542700Y826900D03*
D23*
X711700Y275550D03*
X711700Y288250D03*
X711700Y300950D03*
X711700Y313650D03*
X657700Y275550D03*
X657700Y288250D03*
X657700Y300950D03*
X657700Y313650D03*
D24*
X541400Y324600D03*
X541400Y299200D03*
X541400Y350000D03*
D25*
X948500Y690000D03*
X948500Y510000D03*
X651500Y510000D03*
X651500Y690000D03*
D26*
X596250Y507300D03*
X596250Y481900D03*
X596250Y692700D03*
X596250Y718100D03*
X1003750Y718100D03*
X1003750Y692700D03*
X1003750Y507300D03*
X1003750Y481900D03*
X780000Y612700D03*
X780000Y587300D03*
X820000Y587300D03*
X820000Y612700D03*
D22*
X1114257Y810779D03*
X1139646Y810025D03*
X752548Y1190533D03*
X777947Y1190267D03*
X649393Y1072384D03*
X665378Y1092123D03*
X929639Y1091789D03*
X946168Y1072503D03*
X924944Y958117D03*
X924856Y932718D03*
D27*
X773100Y414374D03*
X781100Y414374D03*
X789100Y414374D03*
X797100Y414374D03*
X805100Y414374D03*
X813100Y414374D03*
X821100Y414374D03*
X829100Y414374D03*
D28*
X844026Y429300D03*
X844026Y437300D03*
X844026Y445300D03*
X844026Y453300D03*
X844026Y461300D03*
X844026Y469300D03*
X844026Y477300D03*
X844026Y485300D03*
D27*
X829100Y500226D03*
X821100Y500226D03*
X813100Y500226D03*
X805100Y500226D03*
X797100Y500226D03*
X789100Y500226D03*
X781100Y500226D03*
X773100Y500226D03*
D28*
X758174Y485300D03*
X758174Y477300D03*
X758174Y469300D03*
X758174Y461300D03*
X758174Y453300D03*
X758174Y445300D03*
X758174Y437300D03*
X758174Y429300D03*
D29*
X882200Y371900D03*
X831400Y371900D03*
D30*
X942700Y400000D03*
X700000Y453300D03*
X965400Y447300D03*
X940000Y420000D03*
X550000Y770000D03*
X857500Y282500D03*
X705000Y332500D03*
X850000Y690000D03*
X740000Y580000D03*
X760000Y780000D03*
X720000Y550000D03*
X700000Y570000D03*
X760000Y350000D03*
X800000Y370000D03*
X850000Y400000D03*
X845000Y595000D03*
X835000Y535000D03*
X855000Y512500D03*
X870000Y412500D03*
X880000Y465000D03*
X840000Y660000D03*
X867500Y567500D03*
X885000Y530000D03*
X865000Y462470D03*
X870000Y515000D03*
X855000Y555000D03*
X820000Y660000D03*
X690000Y430000D03*
X702700Y410000D03*
X750000Y410000D03*
X772700Y400000D03*
X830000Y960000D03*
X850000Y1000000D03*
X780000Y480000D03*
X750000Y980000D03*
X887300Y962700D03*
X882500Y582500D03*
X900000Y520000D03*
X890000Y420000D03*
X907500Y417500D03*
X950000Y560000D03*
X820000Y1000000D03*
X870000Y930000D03*
X1002500Y835000D03*
X1030000Y780000D03*
X560000Y890000D03*
X700000Y1000000D03*
X620000Y630000D03*
X750000Y1000000D03*
X747500Y502500D03*
X725400Y830000D03*
X1050000Y910000D03*
X900000Y857300D03*
X600000Y600000D03*
X630000Y930000D03*
X660000Y550000D03*
X650000Y860000D03*
X610000Y990000D03*
X690000Y480000D03*
X780000Y560000D03*
X830000Y850000D03*
X869500Y1060000D03*
X600000Y540000D03*
X665400Y742700D03*
X640300Y790000D03*
X490000Y390000D03*
X1010000Y560000D03*
X770000Y820000D03*
X560000Y980000D03*
X964600Y900000D03*
X910000Y830000D03*
M02*
