G04 EAGLE Gerber RS-274X export*
G75*
%MOMM*%
%FSLAX34Y34*%
%LPD*%
%INSoldermask Bottom*%
%IPPOS*%
%AMOC8*
5,1,8,0,0,1.08239X$1,22.5*%
G01*
%ADD10C,2.082800*%
%ADD11C,1.703200*%
%ADD12C,1.511200*%
%ADD13C,2.489200*%
%ADD14C,2.203200*%
%ADD15C,1.854200*%
%ADD16C,0.959600*%


D10*
X965700Y377300D03*
X991100Y377300D03*
X965700Y351900D03*
X991100Y351900D03*
X965700Y326500D03*
X991100Y326500D03*
X492200Y320300D03*
X492200Y345700D03*
X458700Y320300D03*
X458700Y345700D03*
D11*
X663100Y942700D03*
X663100Y968100D03*
X454471Y814023D03*
X479869Y814378D03*
X932200Y1024600D03*
X932200Y999200D03*
X656000Y1009200D03*
X656000Y1034600D03*
X691658Y1128618D03*
X706154Y1149475D03*
X887014Y1149115D03*
X902158Y1128723D03*
X819700Y1186900D03*
X845100Y1186900D03*
X1043500Y816900D03*
X1068900Y816900D03*
X517300Y826900D03*
X542700Y826900D03*
D12*
X541400Y324600D03*
X541400Y299200D03*
X541400Y350000D03*
D13*
X948500Y690000D03*
X948500Y510000D03*
X651500Y510000D03*
X651500Y690000D03*
D14*
X596250Y507300D03*
X596250Y481900D03*
X596250Y692700D03*
X596250Y718100D03*
X1003750Y718100D03*
X1003750Y692700D03*
X1003750Y507300D03*
X1003750Y481900D03*
X780000Y612700D03*
X780000Y587300D03*
X820000Y587300D03*
X820000Y612700D03*
D11*
X1114257Y810779D03*
X1139646Y810025D03*
X752548Y1190533D03*
X777947Y1190267D03*
X649393Y1072384D03*
X665378Y1092123D03*
X929639Y1091789D03*
X946168Y1072503D03*
X924944Y958117D03*
X924856Y932718D03*
D15*
X882200Y371900D03*
X831400Y371900D03*
D16*
X942700Y400000D03*
X700000Y453300D03*
X965400Y447300D03*
X940000Y420000D03*
X550000Y770000D03*
X857500Y282500D03*
X705000Y332500D03*
X850000Y690000D03*
X740000Y580000D03*
X760000Y780000D03*
X720000Y550000D03*
X700000Y570000D03*
X760000Y350000D03*
X800000Y370000D03*
X850000Y400000D03*
X845000Y595000D03*
X835000Y535000D03*
X855000Y512500D03*
X870000Y412500D03*
X880000Y465000D03*
X840000Y660000D03*
X867500Y567500D03*
X885000Y530000D03*
X865000Y462470D03*
X870000Y515000D03*
X855000Y555000D03*
X820000Y660000D03*
X690000Y430000D03*
X702700Y410000D03*
X750000Y410000D03*
X772700Y400000D03*
X830000Y960000D03*
X850000Y1000000D03*
X780000Y480000D03*
X750000Y980000D03*
X887300Y962700D03*
X882500Y582500D03*
X900000Y520000D03*
X890000Y420000D03*
X907500Y417500D03*
X950000Y560000D03*
X820000Y1000000D03*
X870000Y930000D03*
X1002500Y835000D03*
X1030000Y780000D03*
X560000Y890000D03*
X700000Y1000000D03*
X620000Y630000D03*
X750000Y1000000D03*
X747500Y502500D03*
X725400Y830000D03*
X1050000Y910000D03*
X900000Y857300D03*
X600000Y600000D03*
X630000Y930000D03*
X660000Y550000D03*
X650000Y860000D03*
X610000Y990000D03*
X690000Y480000D03*
X780000Y560000D03*
X830000Y850000D03*
X869500Y1060000D03*
X600000Y540000D03*
X665400Y742700D03*
X640300Y790000D03*
X490000Y390000D03*
X1010000Y560000D03*
X770000Y820000D03*
X560000Y980000D03*
X964600Y900000D03*
X910000Y830000D03*
M02*
