M48
;GenerationSoftware,Autodesk,EAGLE,9.2.2*%
;CreationDate,2019-03-04T06:26:42Z*%
FMAT,2
ICI,OFF
METRIC,TZ,000.000
T6C0.350
T5C0.700
T4C0.800
T3C0.950
T2C1.016
T1C2.286
%
G90
M71
T1
X94850Y69000
X94850Y51000
X65150Y51000
X65150Y69000
T2
X99110Y37730
X49220Y32030
X96570Y37730
X45870Y34570
X96570Y35190
X99110Y35190
X96570Y32650
X99110Y32650
X49220Y34570
X45870Y32030
T3
X59625Y50730
X100375Y48190
X59625Y48190
X59625Y69270
X59625Y71810
X100375Y71810
X100375Y69270
X100375Y50730
X78000Y61270
X78000Y58730
X82000Y58730
X82000Y61270
T4
X88701Y114911
X90216Y112872
X84510Y118690
X65600Y103460
X106890Y81690
X51730Y82690
X54270Y82690
X54140Y32460
X54140Y29920
X54140Y35000
X104350Y81690
X81970Y118690
X66310Y94270
X66310Y96810
X45447Y81402
X47987Y81438
X93220Y102460
X93220Y99920
X65600Y100920
X69166Y112862
X70615Y114947
X111426Y81078
X113965Y81003
X75255Y119053
X77795Y119027
X64939Y107238
X66538Y109212
X92964Y109179
X94617Y107250
X92494Y95812
X92486Y93272
T5
X88220Y37190
X83140Y37190
T6
X78000Y56000
X83000Y85000
X86950Y106000
X60000Y54000
X66540Y74270
X64030Y79000
X83500Y53500
X101000Y56000
X77000Y82000
X56000Y98000
X96460Y90000
X91000Y83000
X94270Y40000
X70000Y45330
X96540Y44730
X94000Y42000
X55000Y77000
X85750Y28250
X70500Y33250
X85000Y69000
X74000Y58000
X76000Y78000
X49000Y39000
X72000Y55000
X70000Y57000
X76000Y35000
X80000Y37000
X85000Y40000
X84500Y59500
X85500Y51250
X87000Y41250
X88000Y46500
X84000Y66000
X86750Y56750
X88500Y53000
X86500Y46247
X87000Y51500
X85500Y55500
X82000Y66000
X69000Y43000
X70270Y41000
X75000Y41000
X77270Y40000
X83000Y96000
X85000Y100000
X78000Y48000
X75000Y98000
X88730Y96270
X88250Y58250
X90000Y52000
X89000Y42000
X90750Y41750
X95000Y56000
X82000Y100000
X74750Y50250
X87000Y93000
X100250Y83500
X103000Y78000
X56000Y89000
X70000Y100000
X62000Y63000
X75000Y100000
X72540Y83000
X105000Y91000
X90000Y85730
X60000Y60000
X63000Y93000
X66000Y55000
X65000Y86000
X61000Y99000
X69000Y48000
M30